<svg width="14" height="14" viewBox="0 0 14 14" fill="none" xmlns="http://www.w3.org/2000/svg">
    <path
        d="M12.25 7C12.25 5.5375 11.7405 4.29675 10.7215 3.27775C9.703 2.25925 8.4625 1.75 7 1.75V0.25C7.9375 0.25 8.81575 0.428 9.63475 0.784C10.4532 1.1405 11.1658 1.62175 11.7723 2.22775C12.3783 2.83425 12.8595 3.54675 13.216 4.36525C13.572 5.18425 13.75 6.0625 13.75 7H12.25ZM9.25 7C9.25 6.375 9.03125 5.84375 8.59375 5.40625C8.15625 4.96875 7.625 4.75 7 4.75V3.25C8.0375 3.25 8.922 3.6155 9.6535 4.3465C10.3845 5.078 10.75 5.9625 10.75 7H9.25ZM12.9625 13.75C11.35 13.75 9.77825 13.3938 8.24725 12.6813C6.71575 11.9688 5.3595 11.0188 4.1785 9.83125C2.997 8.64375 2.047 7.28425 1.3285 5.75275C0.6095 4.22175 0.25 2.65 0.25 1.0375V0.64375C0.25 0.50625 0.2625 0.375 0.2875 0.25H4.675L5.36875 4.01875L3.23125 6.175C3.75625 7.075 4.41575 7.91875 5.20975 8.70625C6.00325 9.49375 6.875 10.175 7.825 10.75L10 8.575L13.75 9.325V13.7125C13.625 13.725 13.4938 13.7345 13.3563 13.741C13.2188 13.747 13.0875 13.75 12.9625 13.75ZM2.51875 4.75L3.75625 3.5125L3.4375 1.75H1.76875C1.83125 2.2625 1.91875 2.76875 2.03125 3.26875C2.14375 3.76875 2.30625 4.2625 2.51875 4.75ZM9.23125 11.4625C9.71875 11.675 10.2157 11.8438 10.7222 11.9688C11.2282 12.0938 11.7375 12.175 12.25 12.2125V10.5625L10.4875 10.2062L9.23125 11.4625Z"
        fill="#730293" />
</svg>