<svg width="18" height="18" viewBox="0 0 18 18" fill="none" xmlns="http://www.w3.org/2000/svg">
    <path
        d="M9 0.234375C7.26633 0.234375 5.57158 0.74847 4.13008 1.71165C2.68858 2.67483 1.56507 4.04383 0.901622 5.64554C0.238173 7.24725 0.0645844 9.00972 0.402808 10.7101C0.741032 12.4105 1.57588 13.9723 2.80177 15.1982C4.02767 16.4241 5.58955 17.259 7.28992 17.5972C8.99028 17.9354 10.7528 17.7618 12.3545 17.0984C13.9562 16.4349 15.3252 15.3114 16.2884 13.8699C17.2515 12.4284 17.7656 10.7337 17.7656 9C17.7629 6.67605 16.8385 4.44806 15.1952 2.80478C13.5519 1.1615 11.324 0.237104 9 0.234375ZM16.0099 5.73438H12.557C12.1812 4.1758 11.4959 2.7087 10.5417 1.42031C11.7262 1.66373 12.8375 2.18055 13.7869 2.92955C14.7363 3.67856 15.4975 4.63903 16.0099 5.73438ZM16.7344 9C16.735 9.75691 16.6241 10.5098 16.4052 11.2344H12.7692C13.0145 9.75488 13.0145 8.24512 12.7692 6.76562H16.4052C16.6241 7.49022 16.735 8.24309 16.7344 9ZM9 16.7344C8.97857 16.7345 8.95737 16.73 8.9378 16.7213C8.91824 16.7125 8.90077 16.6997 8.88657 16.6837C7.77969 15.4917 6.96672 13.9612 6.50782 12.2656H11.4922C11.0333 13.9612 10.2203 15.4917 9.11344 16.6837C9.09924 16.6997 9.08177 16.7125 9.0622 16.7213C9.04264 16.73 9.02143 16.7345 9 16.7344ZM6.27664 11.2344C6.01197 9.75655 6.01197 8.24345 6.27664 6.76562H11.7234C11.988 8.24345 11.988 9.75655 11.7234 11.2344H6.27664ZM1.26563 9C1.26505 8.24309 1.37595 7.49022 1.59477 6.76562H5.23079C4.98556 8.24512 4.98556 9.75488 5.23079 11.2344H1.59477C1.37595 10.5098 1.26505 9.75691 1.26563 9ZM9 1.26562C9.02143 1.26551 9.04264 1.26997 9.0622 1.27871C9.08177 1.28746 9.09924 1.30028 9.11344 1.31633C10.2203 2.50828 11.0333 4.03883 11.4922 5.73438H6.50782C6.96672 4.03883 7.77969 2.50828 8.88657 1.31633C8.90077 1.30028 8.91824 1.28746 8.9378 1.27871C8.95737 1.26997 8.97857 1.26551 9 1.26562ZM7.45828 1.42031C6.50414 2.7087 5.81881 4.1758 5.44305 5.73438H1.99008C2.50249 4.63903 3.26373 3.67856 4.21312 2.92955C5.1625 2.18055 6.27376 1.66373 7.45828 1.42031ZM1.99008 12.2656H5.44305C5.81881 13.8242 6.50414 15.2913 7.45828 16.5797C6.27376 16.3363 5.1625 15.8194 4.21312 15.0704C3.26373 14.3214 2.50249 13.361 1.99008 12.2656ZM10.5417 16.5797C11.4959 15.2913 12.1812 13.8242 12.557 12.2656H16.0099C15.4975 13.361 14.7363 14.3214 13.7869 15.0704C12.8375 15.8194 11.7262 16.3363 10.5417 16.5797Z"
        fill="#730293" />
</svg>