<!DOCTYPE svg PUBLIC "-//W3C//DTD SVG 20010904//EN" "http://www.w3.org/TR/2001/REC-SVG-20010904/DTD/svg10.dtd">
<svg version="1.0" xmlns="http://www.w3.org/2000/svg" width="50px" height="50px" viewBox="0 0 5700 7600" preserveAspectRatio="xMidYMid meet">
<g id="layer101" fill="#f00" stroke="none">
 <path d="M650 6760 l0 -100 -95 0 -95 0 0 -95 0 -95 95 0 95 0 0 -100 0 -100 95 0 95 0 0 100 0 100 95 0 95 0 0 95 0 95 -95 0 -95 0 0 100 0 100 -95 0 -95 0 0 -100z"/>
 <path d="M2840 6760 l0 -100 -95 0 -95 0 0 -95 0 -95 95 0 95 0 0 -100 0 -100 95 0 95 0 0 100 0 100 95 0 95 0 0 95 0 95 -95 0 -94 0 -3 98 -3 97 -92 3 -93 3 0 -101z"/>
 <path d="M4900 6760 l0 -100 -95 0 -95 0 0 -95 0 -95 95 0 95 0 0 -100 0 -100 95 0 95 0 0 100 0 100 95 0 95 0 0 95 0 95 -95 0 -95 0 0 100 0 100 -95 0 -95 0 0 -100z"/>
 <path d="M1750 5850 l0 -100 -95 0 -95 0 0 -95 0 -95 95 0 95 0 0 -100 0 -100 95 0 95 0 0 100 0 100 95 0 95 0 0 95 0 95 -95 0 -95 0 0 100 0 100 -95 0 -95 0 0 -100z"/>
 <path d="M3810 5850 l0 -100 -95 0 -95 0 0 -95 0 -95 95 0 95 0 0 -100 0 -100 95 0 95 0 0 100 0 100 95 0 95 0 0 95 0 95 -95 0 -95 0 0 100 0 100 -95 0 -95 0 0 -100z"/>
 <path d="M650 4925 l0 -95 -95 0 -95 0 0 -100 0 -100 95 0 95 0 0 -95 0 -95 95 0 95 0 0 95 0 94 93 3 92 3 3 98 3 97 -96 0 -95 0 0 95 0 95 -95 0 -95 0 0 -95z"/>
 <path d="M2840 4925 l0 -95 -95 0 -95 0 0 -100 0 -100 95 0 95 0 0 -95 0 -95 95 0 95 0 0 95 0 94 93 3 92 3 0 95 0 95 -92 3 -93 3 0 94 0 95 -95 0 -95 0 0 -95z"/>
 <path d="M4900 4925 l0 -95 -95 0 -95 0 0 -100 0 -100 95 0 95 0 0 -95 0 -95 95 0 95 0 0 95 0 95 95 0 95 0 0 100 0 100 -95 0 -95 0 0 95 0 95 -95 0 -95 0 0 -95z"/>
 <path d="M1750 4020 l0 -100 -95 0 -95 0 0 -100 0 -100 95 0 95 0 0 -95 0 -95 95 0 95 0 0 95 0 94 93 3 92 3 3 98 3 97 -95 0 -95 0 -3 98 -3 97 -92 3 -93 3 0 -101z"/>
 <path d="M3817 4114 c-4 -4 -7 -49 -7 -101 l0 -93 -95 0 -96 0 3 -97 3 -98 93 -3 92 -3 0 -94 0 -95 95 0 95 0 0 95 0 94 93 3 92 3 3 98 3 97 -95 0 -95 0 -3 98 -3 97 -85 3 c-47 1 -89 0 -93 -4z"/>
 <path d="M650 3095 l0 -95 -79 0 c-115 0 -111 4 -111 -106 l0 -94 95 0 94 0 3 -97 3 -98 90 0 90 0 3 98 3 97 95 0 95 0 -3 98 -3 97 -92 3 -93 3 0 94 0 95 -95 0 -95 0 0 -95z"/>
 <path d="M2840 3095 l0 -95 -95 0 -95 0 0 -100 0 -100 95 0 95 0 0 -99 0 -99 93 2 92 1 3 98 3 97 95 0 95 0 -3 98 -3 97 -92 3 -93 3 0 94 0 95 -95 0 -95 0 0 -95z"/>
 <path d="M4900 3095 l0 -94 -92 -3 -93 -3 -3 -97 -3 -98 96 0 95 0 0 -94 c0 -66 4 -95 13 -98 6 -3 48 -4 92 -4 l80 1 3 98 3 97 95 0 95 0 -3 98 -3 97 -92 3 -93 3 0 94 0 95 -95 0 -95 0 0 -95z"/>
 <path d="M1750 2185 l0 -95 -95 0 -95 0 0 -100 0 -100 95 0 95 0 0 -95 0 -95 95 0 95 0 0 95 0 94 93 3 92 3 0 95 0 95 -92 3 -93 3 0 94 0 95 -95 0 -95 0 0 -95z"/>
 <path d="M3810 2185 l0 -95 -95 0 -95 0 0 -100 0 -100 95 0 95 0 0 -95 0 -95 95 0 95 0 0 95 0 95 95 0 95 0 0 100 0 100 -95 0 -95 0 0 95 0 95 -95 0 -95 0 0 -95z"/>
 <path d="M650 1260 l0 -100 -95 0 -95 0 0 -95 0 -95 95 0 95 0 0 -100 0 -100 95 0 95 0 0 100 0 100 95 0 95 0 0 95 0 95 -95 0 -95 0 0 100 0 100 -95 0 -95 0 0 -100z"/>
 <path d="M2840 1260 l0 -100 -95 0 -95 0 0 -95 0 -95 95 0 95 0 0 -100 0 -100 95 0 95 0 0 100 0 100 93 0 93 0 3 95 2 95 -95 0 -96 0 0 100 0 100 -95 0 -95 0 0 -100z"/>
 <path d="M4900 1260 l0 -100 -95 0 -95 0 0 -95 0 -95 95 0 95 0 0 -100 0 -100 95 0 95 0 0 100 0 100 95 0 95 0 0 95 0 95 -95 0 -95 0 0 100 0 100 -95 0 -95 0 0 -100z"/>
 </g>

</svg>
